<?xml version="1.0" encoding="UTF-8" standalone="no"?>
<!-- Created with Inkscape (http://www.inkscape.org/) -->

<svg
   xmlns:dc="http://purl.org/dc/elements/1.1/"
   xmlns:cc="http://creativecommons.org/ns#"
   xmlns:rdf="http://www.w3.org/1999/02/22-rdf-syntax-ns#"
   xmlns:svg="http://www.w3.org/2000/svg"
   xmlns="http://www.w3.org/2000/svg"
   xmlns:sodipodi="http://sodipodi.sourceforge.net/DTD/sodipodi-0.dtd"
   xmlns:inkscape="http://www.inkscape.org/namespaces/inkscape"
   width="61.113129mm"
   height="61.113129mm"
   viewBox="0 0 216.54258 216.54258"
   id="svg2"
   version="1.1"
   inkscape:version="0.91 r13725"
   sodipodi:docname="mediageek_icon.svg">
  <defs
     id="defs4" />
  <sodipodi:namedview
     id="base"
     pagecolor="#ffffff"
     bordercolor="#666666"
     borderopacity="1.0"
     inkscape:pageopacity="0.0"
     inkscape:pageshadow="2"
     inkscape:zoom="0.24748737"
     inkscape:cx="-1197.1164"
     inkscape:cy="589.46708"
     inkscape:document-units="px"
     inkscape:current-layer="layer1"
     showgrid="false"
     inkscape:window-width="1920"
     inkscape:window-height="1017"
     inkscape:window-x="1912"
     inkscape:window-y="-8"
     inkscape:window-maximized="1"
     fit-margin-top="0"
     fit-margin-left="0"
     fit-margin-right="0"
     fit-margin-bottom="0" />
  <metadata
     id="metadata7">
    <rdf:RDF>
      <cc:Work
         rdf:about="">
        <dc:format>image/svg+xml</dc:format>
        <dc:type
           rdf:resource="http://purl.org/dc/dcmitype/StillImage" />
        <dc:title></dc:title>
      </cc:Work>
    </rdf:RDF>
  </metadata>
  <g
     inkscape:groupmode="layer"
     id="layer2"
     inkscape:label="Layer 2"
     transform="translate(-208.41133,-127.38203)">
    <path
       style="opacity:1;fill:#000000;fill-opacity:1;fill-rule:nonzero;stroke:#000000;stroke-width:2.26472378;stroke-linecap:round;stroke-linejoin:miter;stroke-miterlimit:4;stroke-dasharray:none;stroke-opacity:0"
       d="m 422.63956,235.21005 c 0,58.7514 -47.62742,106.37882 -106.37882,106.37882 -58.7514,0 -106.37882,-47.62742 -106.37882,-106.37882 0,-58.7514 47.62742,-106.37882 106.37882,-106.37882 33.40548,0 64.10435,15.78414 84.69169,39.79373 6.98971,8.15161 13.91977,16.77741 17.90255,26.69494 4.91779,12.24581 3.78458,25.88589 3.78458,39.89015 z"
       id="path4165"
       inkscape:connector-curvature="0"
       sodipodi:nodetypes="sssssss" />
  </g>
  <g
     inkscape:label="Layer 1"
     inkscape:groupmode="layer"
     id="layer1"
     transform="translate(-208.41133,-127.38203)">
    <text
       xml:space="preserve"
       style="font-style:normal;font-weight:normal;font-size:90px;line-height:125%;font-family:sans-serif;letter-spacing:0px;word-spacing:0px;fill:#000000;fill-opacity:1;stroke:none;stroke-width:1px;stroke-linecap:butt;stroke-linejoin:miter;stroke-opacity:1"
       x="281.42856"
       y="386.64792"
       id="text4136"
       sodipodi:linespacing="125%"><tspan
         sodipodi:role="line"
         id="tspan4138"
         x="281.42856"
         y="386.64792" /></text>
    <text
       xml:space="preserve"
       style="font-style:normal;font-weight:normal;font-size:108.20319366px;line-height:125%;font-family:sans-serif;letter-spacing:0px;word-spacing:0px;fill:#ffcc00;fill-opacity:1;stroke:none;stroke-width:1px;stroke-linecap:butt;stroke-linejoin:miter;stroke-opacity:1"
       x="263.84903"
       y="294.50586"
       id="text4148"
       sodipodi:linespacing="125%"><tspan
         sodipodi:role="line"
         id="tspan4150"
         x="263.84903"
         y="294.50586">m</tspan></text>
    <path
       style="opacity:1;fill:#990133;fill-opacity:1;fill-rule:nonzero;stroke:#d4aa00;stroke-width:3.4000001;stroke-linecap:round;stroke-linejoin:miter;stroke-miterlimit:4;stroke-dasharray:none;stroke-opacity:1"
       d="m 383.56003,152.33407 c -5.51791,-4.76182 -15.88636,-12.25162 -29.53473,-17.2028 -11.05686,-4.01106 -24.51183,-6.04915 -37.34171,-6.04924 -58.85851,-4.3e-4 -106.57291,47.71376 -106.57226,106.57227 4.3e-4,58.85774 47.71452,106.57096 106.57226,106.57031 58.85698,-4.3e-4 106.56968,-47.71333 106.57032,-106.57031 1.2e-4,-11.36901 -0.25966,-17.17536 -1.43896,-25.66086 -0.17397,-1.25176 -0.47815,-2.48545 -0.82802,-3.69984 -0.73843,-2.56308 -0.59996,-5.86558 -2.6749,-7.54166 -2.27427,-1.83709 -4.94589,-1.128 -8.69785,-1.128 l -139.84034,0 0,16.65037 133.62832,1.12145 c 2.77958,0.0233 2.31477,13.28971 2.31467,20.25854 -7.1e-4,49.17153 -39.86168,89.03283 -89.03321,89.0332 -49.17228,7e-4 -89.03477,-39.86092 -89.03515,-89.0332 -7.1e-4,-49.17305 39.8621,-89.03552 89.03515,-89.03516 24.50163,1.8e-4 47.57545,9.26616 63.67399,25.28083 0.77564,0.7716 6.41832,5.85953 7.16526,6.65911 0,0 6.66358,6.87408 9.33986,10.81413 1.75703,2.58672 4.33987,8.31685 4.33987,8.31685 l 17.56246,0.85741 c 0,0 -1.69953,-3.855 -2.58577,-5.76586 -1.8609,-4.01236 -3.41515,-8.19959 -5.73497,-11.96528 -1.92775,-3.12926 -4.86857,-6.36476 -6.73689,-8.72873 -5.9016,-7.46728 -10.15926,-11.13405 -20.14737,-19.75353 z"
       id="path4159"
       inkscape:connector-curvature="0"
       sodipodi:nodetypes="csssssaaasccscsssscaccaassc" />
  </g>
  <g
     inkscape:groupmode="layer"
     id="layer3"
     inkscape:label="Layer 3"
     transform="translate(-208.41133,-127.38203)" />
</svg>
