<svg id="SvgjsSvg1001" width="288" height="288" xmlns="http://www.w3.org/2000/svg" version="1.1" xmlns:xlink="http://www.w3.org/1999/xlink" xmlns:svgjs="http://svgjs.com/svgjs"><defs id="SvgjsDefs1002"></defs><g id="SvgjsG1008" transform="matrix(0.9167,0,0,0.9167,12.000007614707954,11.95814757251739)"><svg xmlns="http://www.w3.org/2000/svg" enable-background="new 0 0 100 100" viewBox="0 0 100 100" width="288" height="288"><path d="M53,49.2l3.2,3.6v-41c0-4.6-3.6-8.2-8.2-8.2H10c-4.4,0.2-8,3.8-8,8.2v74c0,4.4,3.6,8.2,8.2,8.2h36.2c2.6,0,5-1,6.8-2.8
		c-2.8-2.8-5.4-5.8-6.2-9.4H11.2c-1.2,0-2-0.8-2-2v-62c0-1,0.8-2,2-2h36c1.2,0,2,1,2,2v28.8C50.6,47.2,52,48,53,49.2z M24.4,85.8H34
		c1.2,0,2,0.8,2,2c0,1-0.8,2-2,2h-9.6c-1.2,0-2-1-2-2C22.4,86.6,23.2,85.8,24.4,85.8z" fill="#cccccc" class="color000 svgShape"></path><path d="M95.6,73.8c-1-11.4-12.2-19.2-16.2-24.6c-3.2-3.4-8.8-2-10,2.2c-3.2-0.8-6.4,1.8-7,4.8c-2.2-0.2-4.4,1-5.8,3L50,51.8
		c-2.2-2.4-6-2.6-8.4-0.4c-4.2,3.6-1.2,7.2,0.2,9C46,65.2,35,53,52,71.6c-1,1.6-1.4,3.4-1.6,5.2c-0.2,3,0.8,6,2.6,8.2
		c1,1.2,10,12.8,20.6,8.6l0,0c2.8,3,7.6,3.4,10.8,0.6l11-9.4C98.6,82,99,77.4,96,74.2L95.6,73.8z" fill="#cccccc" class="color000 svgShape"></path><path d="M39,48.4c1.6-1.4,3.8-2.2,6-2.4c0-0.2,0-0.6,0-0.8c-0.2-0.8-0.8-1.2-1.6-1.4l-8.6-1.2L31,35c-0.6-1.4-3-1.4-3.6,0l-3.8,7.6
		L15,43.8c-0.8,0.2-1.4,0.6-1.6,1.4c-0.2,0.8,0,1.6,0.6,2l6.2,6l-1.4,8.4c-0.2,0.8,0.2,1.6,0.8,2c0.6,0.4,1.4,0.4,2,0.2l7.6-4l7.6,4
		c0.6,0.4,1.4,0.2,2.2-0.2c0,0,0.2,0,0.2-0.2c0,0-0.2-0.2-0.4-0.4l0,0C32.8,55.6,36.4,50.6,39,48.4z" fill="#cccccc" class="color000 svgShape"></path></svg></g></svg>