<?xml version="1.0" standalone="no"?>
<!DOCTYPE svg PUBLIC "-//W3C//DTD SVG 20010904//EN"
 "http://www.w3.org/TR/2001/REC-SVG-20010904/DTD/svg10.dtd">
<svg version="1.0" xmlns="http://www.w3.org/2000/svg"
 width="500.000000pt" height="500.000000pt" viewBox="0 0 500.000000 500.000000"
 preserveAspectRatio="xMidYMid meet">
<metadata>
Created by potrace 1.11, written by Peter Selinger 2001-2013
</metadata>
<g transform="translate(0.000000,500.000000) scale(0.100000,-0.100000)"
fill="#000000" stroke="none">
<path d="M2250 4988 c-129 -12 -371 -63 -500 -104 -392 -124 -734 -334 -1025
-628 -338 -341 -566 -759 -668 -1227 -25 -111 -29 -141 -45 -279 -14 -127 -5
-569 12 -599 2 -4 6 -29 10 -58 3 -28 8 -57 11 -65 2 -7 6 -24 9 -38 13 -76
50 -209 86 -310 23 -63 44 -124 47 -135 4 -11 39 -84 79 -162 79 -156 171
-302 273 -433 71 -91 300 -327 366 -375 22 -17 49 -38 60 -48 62 -56 400 -267
429 -267 7 0 16 -4 22 -9 24 -24 353 -149 434 -166 8 -2 42 -10 75 -18 77 -20
227 -45 335 -56 83 -9 466 -7 505 2 16 4 116 18 160 22 6 1 35 7 65 13 30 7
65 14 77 16 71 14 194 54 398 129 16 6 74 32 128 59 393 193 733 488 973 843
59 88 142 225 142 235 0 3 15 34 35 70 77 142 165 399 206 600 39 195 46 278
46 565 -1 483 -27 639 -157 930 -44 99 -89 198 -100 220 -69 137 -275 385
-462 557 -261 239 -432 364 -646 472 -170 87 -406 172 -528 192 -15 2 -47 9
-72 14 -49 10 -91 17 -160 25 -25 3 -61 8 -80 11 -63 9 -453 11 -540 2z"/>
</g>
</svg>
